<svg id="eLFS80EZbge1" xmlns="http://www.w3.org/2000/svg" xmlns:xlink="http://www.w3.org/1999/xlink" viewBox="0 0 300 300" shape-rendering="geometricPrecision" text-rendering="geometricPrecision" project-id="0754b3cbf0ef45a6b85f8b6c9572712b" export-id="a795b91290dc4857bbeb02f270a172a8" cached="false"><defs><linearGradient id="eLFS80EZbge12-fill" x1="3.59" y1="21.01" x2="22.33" y2="21.01" spreadMethod="pad" gradientUnits="userSpaceOnUse" gradientTransform="translate(0 0)"><stop id="eLFS80EZbge12-fill-0" offset="13%" stop-color="#5e63ab"/><stop id="eLFS80EZbge12-fill-1" offset="88%" stop-color="#5b60a6"/></linearGradient><linearGradient id="eLFS80EZbge13-fill" x1="6.77" y1="24.88" x2="42.11" y2="24.88" spreadMethod="pad" gradientUnits="userSpaceOnUse" gradientTransform="translate(0 0)"><stop id="eLFS80EZbge13-fill-0" offset="1%" stop-color="#94a7de"/><stop id="eLFS80EZbge13-fill-1" offset="88%" stop-color="#6f74bf"/></linearGradient><linearGradient id="eLFS80EZbge15-fill" x1="106.786522" y1="-32.992141" x2="125.393742" y2="-17.37883" spreadMethod="pad" gradientUnits="userSpaceOnUse" gradientTransform="translate(0 0)"><stop id="eLFS80EZbge15-fill-0" offset="13%" stop-color="#5e63ab"/><stop id="eLFS80EZbge15-fill-1" offset="88%" stop-color="#5b60a6"/></linearGradient><linearGradient id="eLFS80EZbge16-fill" x1="96.598577" y1="-15.040591" x2="138.009362" y2="-12.275295" spreadMethod="pad" gradientUnits="userSpaceOnUse" gradientTransform="translate(0 0)"><stop id="eLFS80EZbge16-fill-0" offset="1%" stop-color="#94a7de"/><stop id="eLFS80EZbge16-fill-1" offset="88%" stop-color="#6f74bf"/></linearGradient><linearGradient id="eLFS80EZbge18-fill" x1="-54.25" y1="-113.69" x2="39.75" y2="83.31" spreadMethod="pad" gradientUnits="userSpaceOnUse" gradientTransform="translate(0 0)"><stop id="eLFS80EZbge18-fill-0" offset="1%" stop-color="#94a7de"/><stop id="eLFS80EZbge18-fill-1" offset="88%" stop-color="#6f74bf"/></linearGradient><linearGradient id="eLFS80EZbge19-fill" x1="-40.13" y1="-84.1" x2="29.4" y2="61.63" spreadMethod="pad" gradientUnits="userSpaceOnUse" gradientTransform="translate(0 0)"><stop id="eLFS80EZbge19-fill-0" offset="1%" stop-color="#c1dbf2"/><stop id="eLFS80EZbge19-fill-1" offset="94%" stop-color="#b1cce0"/></linearGradient><linearGradient id="eLFS80EZbge20-fill" x1="-1.38" y1="-15.24" x2="15.81" y2="61.99" spreadMethod="pad" gradientUnits="userSpaceOnUse" gradientTransform="translate(0 0)"><stop id="eLFS80EZbge20-fill-0" offset="10%" stop-color="#f0877a"/><stop id="eLFS80EZbge20-fill-1" offset="100%" stop-color="#d66c5c"/></linearGradient><linearGradient id="eLFS80EZbge21-fill" x1="-12.74" y1="0" x2="14.61" y2="0" spreadMethod="pad" gradientUnits="userSpaceOnUse" gradientTransform="translate(0 0)"><stop id="eLFS80EZbge21-fill-0" offset="13%" stop-color="#5e63ab"/><stop id="eLFS80EZbge21-fill-1" offset="88%" stop-color="#5b60a6"/></linearGradient></defs><path d="M133.7914,69.06272c4.74856,18.99424,17.62041,48.15914,29.59831,64.12967" fill="none" stroke="#3f5787" stroke-width="0.6"/><path d="M53.45314,208.5976c39.08173-19.54086-4.64146-47.55645-10.57082-11.98027-5.05651,30.33905,30.97854,56.49457,40.87385,16.91332" transform="translate(.000001 0.000001)" fill="none" stroke="#3f5787" stroke-width="0.6"/><path d="M77.41367,188.8654c9.29564,10.62359,17.7726,22.86895,28.18886,32.41719c17.57525,16.11065,2.62222-21.42024.70472-31.00775" fill="none" stroke="#3f5787" stroke-width="0.6"/><path d="M122.51586,198.02678c3.32416-1.9945,24.15154-22.2152,11.98027-26.77942-20.6368-7.7388-15.70337,65.03388,15.50388,33.82664" transform="translate(0 0.000001)" fill="none" stroke="#3f5787" stroke-width="0.6"/><path d="M154.22833,164.90486c1.24523,3.73569,2.06116,7.61943,3.52361,11.27555c2.4193,6.04826,5.36829,11.8825,8.45666,17.61804c13.21708,24.54601-13.45735-37.83293,7.75194-39.46441c10.14346-.78027,18.1605,29.19265,21.14165,36.64553" fill="none" stroke="#3f5787" stroke-width="0.6"/><path d="M192.2833,131.78295c1.88064,16.92575,17.93464,84.8322,36.64552,38.05497" transform="translate(0 0.000001)" fill="none" stroke="#3f5787" stroke-width="0.6"/><path d="M192.2833,162.7907c5.5142-4.13565,10.7302-8.57619,16.2086-12.68499" fill="none" stroke="#3f5787" stroke-width="0.6"/><path d="M242.31853,131.07822c-4.60472,0-19.70744,3.14535-14.79915,11.98027c4.54009,8.17216,16.95354-5.08269,22.55109,2.11416c6.63208,8.52696-.68257,27.63838-12.68499,20.43693" fill="none" stroke="#3f5787" stroke-width="0.6"/><g transform="translate(-48.345756-50.960006)"><g><rect width="24.63" height="42.02" rx="0" ry="0" transform="translate(191.71 88.77)" fill="url(#eLFS80EZbge12-fill)"/><rect width="46.46" height="49.76" rx="9.17" ry="9.17" transform="translate(180.8 55)" fill="url(#eLFS80EZbge13-fill)"/></g><g><rect width="17.72" height="28.56" rx="0" ry="0" transform="matrix(.766044-.642788 0.642788 0.766044 101.130732 135.473234)" fill="url(#eLFS80EZbge15-fill)"/><rect width="47.7" height="20.53" rx="8.08" ry="8.08" transform="matrix(.766044-.642788 0.642788 0.766044 77.561509 130.699714)" fill="url(#eLFS80EZbge16-fill)"/></g><g><circle r="115.21" transform="translate(203.92 231.71)" fill="url(#eLFS80EZbge18-fill)"/><circle r="85.22" transform="translate(203.9 231.71)" fill="url(#eLFS80EZbge19-fill)"/><rect width="15.55" height="51.84" rx="7.78" ry="7.78" transform="translate(196.14 184.93)" fill="url(#eLFS80EZbge20-fill)"/><circle r="17.98" transform="translate(203.92 231.71)" fill="url(#eLFS80EZbge21-fill)"/><g><line x1="203.9" y1="161.29" x2="203.9" y2="170.55" fill="none" stroke="#e8f4ff" stroke-width="13" stroke-linecap="round" stroke-miterlimit="10"/><line x1="162.51" y1="174.76" x2="167.95" y2="182.24" fill="none" stroke="#e8f4ff" stroke-width="13" stroke-linecap="round" stroke-miterlimit="10"/><line x1="136.94" y1="209.97" x2="145.75" y2="212.83" fill="none" stroke="#e8f4ff" stroke-width="13" stroke-linecap="round" stroke-miterlimit="10"/><line x1="136.96" y1="253.49" x2="145.76" y2="250.63" fill="none" stroke="#e8f4ff" stroke-width="13" stroke-linecap="round" stroke-miterlimit="10"/><line x1="162.55" y1="288.69" x2="167.99" y2="281.21" fill="none" stroke="#e8f4ff" stroke-width="13" stroke-linecap="round" stroke-miterlimit="10"/><line x1="203.95" y1="302.13" x2="203.95" y2="292.87" fill="none" stroke="#e8f4ff" stroke-width="13" stroke-linecap="round" stroke-miterlimit="10"/><line x1="245.33" y1="288.67" x2="239.89" y2="281.18" fill="none" stroke="#e8f4ff" stroke-width="13" stroke-linecap="round" stroke-miterlimit="10"/><line x1="270.9" y1="253.45" x2="262.1" y2="250.59" fill="none" stroke="#e8f4ff" stroke-width="13" stroke-linecap="round" stroke-miterlimit="10"/><line x1="270.88" y1="209.93" x2="262.08" y2="212.79" fill="none" stroke="#e8f4ff" stroke-width="13" stroke-linecap="round" stroke-miterlimit="10"/><line x1="245.29" y1="174.73" x2="239.85" y2="182.22" fill="none" stroke="#e8f4ff" stroke-width="13" stroke-linecap="round" stroke-miterlimit="10"/></g></g></g></svg>
